<?xml version="1.0" standalone="no"?>
<!DOCTYPE svg PUBLIC "-//W3C//DTD SVG 20010904//EN"
 "http://www.w3.org/TR/2001/REC-SVG-20010904/DTD/svg10.dtd">
<svg version="1.0" xmlns="http://www.w3.org/2000/svg"
 width="261.000000pt" height="291.000000pt" viewBox="0 0 261.000000 291.000000"
 preserveAspectRatio="xMidYMid meet">
<metadata>
Created by potrace 1.16, written by Peter Selinger 2001-2019
</metadata>
<g transform="translate(0.000000,291.000000) scale(0.100000,-0.100000)"
fill="#000000" stroke="none">
<path d="M1145 2235 c-114 -18 -270 -62 -295 -82 -3 -3 6 -13 20 -23 l24 -18
-56 -59 c-95 -100 -148 -235 -151 -383 -2 -66 2 -82 31 -139 17 -35 32 -71 32
-79 0 -9 6 -12 16 -8 9 3 28 6 44 6 27 0 29 4 36 48 15 109 67 182 159 224 47
22 62 23 265 23 210 0 217 1 295 28 l80 29 32 -38 c42 -48 69 -121 84 -227
l13 -85 38 -4 c36 -3 39 -2 49 32 6 19 22 53 36 74 24 37 25 44 19 129 -18
236 -89 391 -188 412 -18 4 -52 25 -75 46 -22 20 -60 47 -83 59 -94 48 -260
62 -425 35z"/>
<path d="M606 575 c-146 -35 -224 -59 -237 -71 -18 -19 -8 -25 369 -240 213
-122 409 -229 436 -238 62 -20 187 -21 251 -1 27 8 228 117 446 242 l397 228
-26 16 c-34 21 -463 122 -473 112 -5 -5 -42 -82 -83 -173 -89 -198 -102 -210
-165 -165 -23 17 -78 56 -123 87 l-82 57 -38 -21 c-21 -12 -70 -46 -109 -75
-39 -29 -80 -58 -91 -64 -42 -22 -59 1 -142 185 -57 129 -83 176 -95 175 -9
-1 -114 -25 -235 -54z"/>
</g>
</svg>
